<mxfile host="app.diagrams.net" agent="Mozilla/5.0 (Windows NT 10.0; Win64; x64) AppleWebKit/537.36 (KHTML, like Gecko) Chrome/135.0.0.0 Safari/537.36" version="26.2.9">
  <diagram name="Page-1" id="GLcaPS-JBzZcbto4akbe">
    <mxGraphModel dx="1428" dy="795" grid="1" gridSize="10" guides="1" tooltips="1" connect="1" arrows="1" fold="1" page="1" pageScale="1" pageWidth="1000" pageHeight="1000" math="0" shadow="0">
      <root>
        <mxCell id="0" />
        <mxCell id="1" parent="0" />
        <mxCell id="qNFAb3NdpQNmQN_oR84U-1" value="&lt;b&gt;Road&lt;/b&gt;" style="text;html=1;align=center;verticalAlign=middle;whiteSpace=wrap;rounded=0;fontSize=15;" vertex="1" parent="1">
          <mxGeometry x="40" y="20" width="60" height="30" as="geometry" />
        </mxCell>
        <mxCell id="qNFAb3NdpQNmQN_oR84U-2" style="edgeStyle=orthogonalEdgeStyle;rounded=0;orthogonalLoop=1;jettySize=auto;html=1;exitX=0.5;exitY=1;exitDx=0;exitDy=0;entryX=0.5;entryY=0;entryDx=0;entryDy=0;" edge="1" parent="1" source="qNFAb3NdpQNmQN_oR84U-5" target="qNFAb3NdpQNmQN_oR84U-21">
          <mxGeometry relative="1" as="geometry" />
        </mxCell>
        <mxCell id="qNFAb3NdpQNmQN_oR84U-3" style="edgeStyle=orthogonalEdgeStyle;rounded=0;orthogonalLoop=1;jettySize=auto;html=1;exitX=0.5;exitY=1;exitDx=0;exitDy=0;entryX=0.5;entryY=0;entryDx=0;entryDy=0;" edge="1" parent="1" source="qNFAb3NdpQNmQN_oR84U-5" target="qNFAb3NdpQNmQN_oR84U-16">
          <mxGeometry relative="1" as="geometry" />
        </mxCell>
        <mxCell id="qNFAb3NdpQNmQN_oR84U-4" style="edgeStyle=orthogonalEdgeStyle;rounded=0;orthogonalLoop=1;jettySize=auto;html=1;exitX=0.5;exitY=1;exitDx=0;exitDy=0;" edge="1" parent="1" source="qNFAb3NdpQNmQN_oR84U-5" target="qNFAb3NdpQNmQN_oR84U-20">
          <mxGeometry relative="1" as="geometry" />
        </mxCell>
        <mxCell id="qNFAb3NdpQNmQN_oR84U-5" value="All" style="rounded=1;whiteSpace=wrap;html=1;" vertex="1" parent="1">
          <mxGeometry x="520" y="80" width="120" height="60" as="geometry" />
        </mxCell>
        <mxCell id="qNFAb3NdpQNmQN_oR84U-6" value="All" style="text;html=1;align=center;verticalAlign=middle;whiteSpace=wrap;rounded=0;fontSize=15;" vertex="1" parent="1">
          <mxGeometry x="40" y="95" width="60" height="30" as="geometry" />
        </mxCell>
        <mxCell id="qNFAb3NdpQNmQN_oR84U-7" style="edgeStyle=orthogonalEdgeStyle;rounded=0;orthogonalLoop=1;jettySize=auto;html=1;exitX=0.5;exitY=0;exitDx=0;exitDy=0;entryX=0.5;entryY=1;entryDx=0;entryDy=0;" edge="1" parent="1" source="qNFAb3NdpQNmQN_oR84U-8" target="qNFAb3NdpQNmQN_oR84U-12">
          <mxGeometry relative="1" as="geometry" />
        </mxCell>
        <mxCell id="qNFAb3NdpQNmQN_oR84U-8" value="speed_limit" style="text;html=1;align=center;verticalAlign=middle;whiteSpace=wrap;rounded=0;fontSize=15;" vertex="1" parent="1">
          <mxGeometry x="40" y="385" width="60" height="30" as="geometry" />
        </mxCell>
        <mxCell id="qNFAb3NdpQNmQN_oR84U-11" style="edgeStyle=orthogonalEdgeStyle;rounded=0;orthogonalLoop=1;jettySize=auto;html=1;exitX=0.5;exitY=0;exitDx=0;exitDy=0;entryX=0.5;entryY=1;entryDx=0;entryDy=0;" edge="1" parent="1" source="qNFAb3NdpQNmQN_oR84U-12" target="qNFAb3NdpQNmQN_oR84U-6">
          <mxGeometry relative="1" as="geometry" />
        </mxCell>
        <mxCell id="qNFAb3NdpQNmQN_oR84U-12" value="road_type" style="text;html=1;align=center;verticalAlign=middle;whiteSpace=wrap;rounded=0;fontSize=15;" vertex="1" parent="1">
          <mxGeometry x="40" y="235" width="60" height="30" as="geometry" />
        </mxCell>
        <mxCell id="qNFAb3NdpQNmQN_oR84U-13" style="edgeStyle=orthogonalEdgeStyle;rounded=0;orthogonalLoop=1;jettySize=auto;html=1;exitX=0.5;exitY=1;exitDx=0;exitDy=0;entryX=0.5;entryY=0;entryDx=0;entryDy=0;" edge="1" parent="1" source="qNFAb3NdpQNmQN_oR84U-16" target="qNFAb3NdpQNmQN_oR84U-22">
          <mxGeometry relative="1" as="geometry" />
        </mxCell>
        <mxCell id="qNFAb3NdpQNmQN_oR84U-14" style="edgeStyle=orthogonalEdgeStyle;rounded=0;orthogonalLoop=1;jettySize=auto;html=1;exitX=0.5;exitY=1;exitDx=0;exitDy=0;entryX=0.5;entryY=0;entryDx=0;entryDy=0;" edge="1" parent="1" source="qNFAb3NdpQNmQN_oR84U-16" target="qNFAb3NdpQNmQN_oR84U-26">
          <mxGeometry relative="1" as="geometry" />
        </mxCell>
        <mxCell id="qNFAb3NdpQNmQN_oR84U-15" style="edgeStyle=orthogonalEdgeStyle;rounded=0;orthogonalLoop=1;jettySize=auto;html=1;exitX=0.5;exitY=1;exitDx=0;exitDy=0;entryX=0.5;entryY=0;entryDx=0;entryDy=0;" edge="1" parent="1" source="qNFAb3NdpQNmQN_oR84U-16" target="qNFAb3NdpQNmQN_oR84U-29">
          <mxGeometry relative="1" as="geometry" />
        </mxCell>
        <mxCell id="qNFAb3NdpQNmQN_oR84U-16" value="Local Road" style="rounded=1;whiteSpace=wrap;html=1;" vertex="1" parent="1">
          <mxGeometry x="360" y="220" width="120" height="60" as="geometry" />
        </mxCell>
        <mxCell id="qNFAb3NdpQNmQN_oR84U-17" style="edgeStyle=orthogonalEdgeStyle;rounded=0;orthogonalLoop=1;jettySize=auto;html=1;exitX=0.5;exitY=1;exitDx=0;exitDy=0;entryX=0.5;entryY=0;entryDx=0;entryDy=0;" edge="1" parent="1" source="qNFAb3NdpQNmQN_oR84U-20" target="qNFAb3NdpQNmQN_oR84U-27">
          <mxGeometry relative="1" as="geometry" />
        </mxCell>
        <mxCell id="qNFAb3NdpQNmQN_oR84U-18" style="edgeStyle=orthogonalEdgeStyle;rounded=0;orthogonalLoop=1;jettySize=auto;html=1;exitX=0.5;exitY=1;exitDx=0;exitDy=0;entryX=0.5;entryY=0;entryDx=0;entryDy=0;" edge="1" parent="1" source="qNFAb3NdpQNmQN_oR84U-20" target="qNFAb3NdpQNmQN_oR84U-28">
          <mxGeometry relative="1" as="geometry" />
        </mxCell>
        <mxCell id="qNFAb3NdpQNmQN_oR84U-19" style="edgeStyle=orthogonalEdgeStyle;rounded=0;orthogonalLoop=1;jettySize=auto;html=1;exitX=0.5;exitY=1;exitDx=0;exitDy=0;entryX=0.5;entryY=0;entryDx=0;entryDy=0;" edge="1" parent="1" source="qNFAb3NdpQNmQN_oR84U-20" target="qNFAb3NdpQNmQN_oR84U-31">
          <mxGeometry relative="1" as="geometry" />
        </mxCell>
        <mxCell id="qNFAb3NdpQNmQN_oR84U-20" value="National or State Highway" style="rounded=1;whiteSpace=wrap;html=1;" vertex="1" parent="1">
          <mxGeometry x="680" y="220" width="120" height="60" as="geometry" />
        </mxCell>
        <mxCell id="qNFAb3NdpQNmQN_oR84U-21" value="..." style="rounded=1;whiteSpace=wrap;html=1;" vertex="1" parent="1">
          <mxGeometry x="520" y="220" width="120" height="60" as="geometry" />
        </mxCell>
        <mxCell id="qNFAb3NdpQNmQN_oR84U-22" value="80" style="rounded=1;whiteSpace=wrap;html=1;" vertex="1" parent="1">
          <mxGeometry x="200" y="370" width="90" height="60" as="geometry" />
        </mxCell>
        <mxCell id="qNFAb3NdpQNmQN_oR84U-26" value="50" style="rounded=1;whiteSpace=wrap;html=1;" vertex="1" parent="1">
          <mxGeometry x="460" y="370" width="90" height="60" as="geometry" />
        </mxCell>
        <mxCell id="qNFAb3NdpQNmQN_oR84U-27" value="60" style="rounded=1;whiteSpace=wrap;html=1;" vertex="1" parent="1">
          <mxGeometry x="610" y="370" width="90" height="60" as="geometry" />
        </mxCell>
        <mxCell id="qNFAb3NdpQNmQN_oR84U-28" value="100" style="rounded=1;whiteSpace=wrap;html=1;" vertex="1" parent="1">
          <mxGeometry x="870" y="370" width="90" height="60" as="geometry" />
        </mxCell>
        <mxCell id="qNFAb3NdpQNmQN_oR84U-29" value="..." style="rounded=1;whiteSpace=wrap;html=1;" vertex="1" parent="1">
          <mxGeometry x="330" y="370" width="90" height="60" as="geometry" />
        </mxCell>
        <mxCell id="qNFAb3NdpQNmQN_oR84U-31" value="..." style="rounded=1;whiteSpace=wrap;html=1;" vertex="1" parent="1">
          <mxGeometry x="740" y="370" width="90" height="60" as="geometry" />
        </mxCell>
      </root>
    </mxGraphModel>
  </diagram>
</mxfile>
